<svg id="Capa_1" enable-background="new 0 0 512 512" height="512" viewBox="0 0 512 512" width="512" xmlns="http://www.w3.org/2000/svg"><path d="m256 353.467c9.447 0 17.134-7.687 17.134-17.134s-7.687-17.133-17.134-17.133-17.134 7.686-17.134 17.133 7.687 17.134 17.134 17.134z"/><path d="m0 448.8c0 8.284 6.716 15 15 15h482c8.284 0 15-6.716 15-15v-209.934h-512zm208.866-112.467c0-3.202.324-6.329.935-9.353l-3.043-1.757c-7.175-4.142-9.633-13.315-5.49-20.49 4.143-7.174 13.315-9.634 20.49-5.49l3.075 1.775c4.663-4.12 10.144-7.329 16.167-9.357v-3.528c0-8.284 6.716-15 15-15s15 6.716 15 15v3.528c6.022 2.028 11.503 5.237 16.167 9.357l3.075-1.775c7.175-4.143 16.348-1.686 20.49 5.49 4.143 7.175 1.685 16.349-5.49 20.49l-3.043 1.757c.611 3.024.935 6.151.935 9.353s-.324 6.329-.935 9.354l3.043 1.757c7.175 4.142 9.633 13.315 5.49 20.49-2.778 4.812-7.82 7.503-13.004 7.503-2.545 0-5.124-.648-7.486-2.013l-3.075-1.775c-4.663 4.12-10.144 7.329-16.166 9.357v3.528c0 8.284-6.716 15-15 15s-15-6.716-15-15v-3.528c-6.022-2.028-11.503-5.237-16.166-9.357l-3.075 1.775c-2.362 1.364-4.941 2.013-7.486 2.013-5.184 0-10.226-2.69-13.004-7.503-4.143-7.175-1.685-16.349 5.49-20.49l3.043-1.757c-.613-3.025-.937-6.152-.937-9.354z"/><path d="m497 128.533h-482c-8.284 0-15 6.716-15 15v65.333h512v-65.333c0-8.284-6.716-15-15-15z"/><path d="m158.533 95.333c0-9.476 7.673-17.133 17.134-17.133h160.666c9.457 0 17.134 7.653 17.134 17.133v3.2h30v-3.2c0-26.337-21.387-47.133-47.134-47.133h-160.666c-26.265 0-47.134 21.311-47.134 47.133v3.2h30z"/></svg>