<svg height="512pt" viewBox="0 -44 512 512" width="512pt" xmlns="http://www.w3.org/2000/svg"><path d="m87.296875 263.667969c0 9.460937 7.699219 17.15625 17.160156 17.15625 9.460938 0 17.15625-7.695313 17.15625-17.15625 0-9.460938-7.695312-17.160157-17.15625-17.160157-9.460937 0-17.160156 7.699219-17.160156 17.160157zm0 0"/><path d="m424.703125 263.667969c0-9.460938-7.699219-17.160157-17.160156-17.160157-9.460938 0-17.15625 7.699219-17.15625 17.160157 0 9.460937 7.695312 17.15625 17.15625 17.15625 9.460937 0 17.160156-7.695313 17.160156-17.15625zm0 0"/><path d="m512 166.730469v-96.730469h-170v-70h-172v70h-170v96.730469zm-312-136.730469h112v40h-112zm0 0"/><path d="m338.667969 196.730469v51.9375h24.179687c6.28125-18.671875 23.9375-32.160157 44.699219-32.160157 26 0 47.15625 21.15625 47.15625 47.160157 0 26.003906-21.15625 47.15625-47.15625 47.15625-20.761719 0-38.417969-13.488281-44.699219-32.15625h-54.179687v-81.9375h-37.667969v85.914062c18.667969 6.28125 32.15625 23.9375 32.15625 44.699219 0 26-21.152344 47.15625-47.15625 47.15625s-47.15625-21.15625-47.15625-47.15625c0-20.761719 13.488281-38.417969 32.15625-44.699219v-85.914062h-37.667969v81.9375h-54.179687c-6.28125 18.667969-23.9375 32.15625-44.699219 32.15625-26 0-47.15625-21.152344-47.15625-47.15625 0-26.003907 21.15625-47.160157 47.15625-47.160157 20.761719 0 38.417969 13.488282 44.699219 32.160157h24.179687v-51.9375h-173.332031v227.269531h512v-227.269531zm0 0"/><path d="m256 344.5c9.460938 0 17.15625-7.695312 17.15625-17.15625s-7.695312-17.160156-17.15625-17.160156-17.15625 7.699218-17.15625 17.160156 7.695312 17.15625 17.15625 17.15625zm0 0"/></svg>