<?xml version="1.0"?>
<svg xmlns="http://www.w3.org/2000/svg" viewBox="0 0 64 64" width="512" height="512"><g id="toolbox"><path d="M39,32a1,1,0,0,0,1-1V27a1,1,0,0,0-1-1H25a1,1,0,0,0-1,1v4a1,1,0,0,0,1,1Zm-8-4h2v2H31Z"/><path d="M42,31a3.009,3.009,0,0,1-3,3H25a3.009,3.009,0,0,1-3-3V30H8V59a1,1,0,0,0,1,1H55a1,1,0,0,0,1-1V30H42ZM28,49a1,1,0,0,1-.76.97l-.67.17.36.59a1.012,1.012,0,0,1-.15,1.22l-2.83,2.83a1,1,0,0,1-1.22.15l-.59-.36-.17.67A1,1,0,0,1,21,56H17a1,1,0,0,1-.97-.76l-.17-.67-.59.36a1,1,0,0,1-1.22-.15l-2.83-2.83a1,1,0,0,1-.15-1.22l.36-.59-.67-.17A1,1,0,0,1,10,49V45a1,1,0,0,1,.76-.97l.67-.17-.36-.59a1.012,1.012,0,0,1,.15-1.22l2.83-2.83a1.014,1.014,0,0,1,1.22-.15l.59.36.17-.67A1,1,0,0,1,17,38h4a1,1,0,0,1,.97.76l.17.67.59-.36a1.012,1.012,0,0,1,1.22.15l2.83,2.83a1,1,0,0,1,.15,1.22l-.36.59.67.17A1,1,0,0,1,28,45ZM43,38h4a1,1,0,0,1,.97.76l.17.67.59-.36a1.012,1.012,0,0,1,1.22.15l2.83,2.83a1,1,0,0,1,.15,1.22l-.36.59.67.17A1,1,0,0,1,54,45v4a1,1,0,0,1-.76.97l-.67.17.36.59a1,1,0,0,1-.15,1.22l-2.83,2.83a1.014,1.014,0,0,1-1.22.15l-.59-.36-.17.67A1,1,0,0,1,47,56H43a1,1,0,0,1-.97-.76l-.17-.67-.59.36a1.012,1.012,0,0,1-1.22-.15l-2.83-2.83a1,1,0,0,1-.15-1.22l.36-.59-.67-.17A1,1,0,0,1,36,49V45a1,1,0,0,1,.76-.97l.67-.17-.36-.59a1,1,0,0,1,.15-1.22l2.83-2.83a1.014,1.014,0,0,1,1.22-.15l.59.36.17-.67A1,1,0,0,1,43,38Z"/><path d="M59,16H5a1,1,0,0,0-1,1V27a1,1,0,0,0,1,1H22V27a3.009,3.009,0,0,1,3-3H39a3.009,3.009,0,0,1,3,3v1H59a1,1,0,0,0,1-1V17A1,1,0,0,0,59,16ZM8,26H6V24H8Zm0-7H6V17H8Zm50,7H56V24h2Zm0-7H56V17h2Z"/><path d="M56.76,14H59a2.666,2.666,0,0,1,1.01.19,6.977,6.977,0,0,0,.59-3.07Z"/><polygon points="10.77 13.78 13.78 10.77 10.22 6.01 6.14 4.27 4.27 6.14 6.01 10.22 10.77 13.78"/><polygon points="16.65 14 15.07 12.3 13.37 14 16.65 14"/><path d="M21,8a2.006,2.006,0,0,1,2-2H41a2.006,2.006,0,0,1,2,2v6h2V7a3.009,3.009,0,0,0-3-3H22a3.009,3.009,0,0,0-3,3v7h2Z"/><path d="M50.73,10.03a1,1,0,0,1-.09-1.31L53.88,4.4a7.023,7.023,0,0,0-5.27,2.1A8.16,8.16,0,0,0,47,8.78V14h7.71Z"/><path d="M39.19,42.91l.65,1.08a1.019,1.019,0,0,1,.06.9,1.007,1.007,0,0,1-.68.59l-1.22.3v2.44l1.22.3a1.007,1.007,0,0,1,.68.59,1.019,1.019,0,0,1-.06.9l-.65,1.08,1.72,1.72,1.08-.65a1.019,1.019,0,0,1,.9-.06,1.007,1.007,0,0,1,.59.68l.3,1.22h2.44l.3-1.22a1.007,1.007,0,0,1,.59-.68,1.019,1.019,0,0,1,.9.06l1.08.65,1.72-1.72-.65-1.08a1.019,1.019,0,0,1-.06-.9,1.007,1.007,0,0,1,.68-.59l1.22-.3V45.78l-1.22-.3a1.007,1.007,0,0,1-.68-.59,1.019,1.019,0,0,1,.06-.9l.65-1.08-1.72-1.72-1.08.64a.989.989,0,0,1-.9.07,1.007,1.007,0,0,1-.59-.68L46.22,40H43.78l-.3,1.22a1.007,1.007,0,0,1-.59.68.989.989,0,0,1-.9-.07l-1.08-.64ZM45,43a4,4,0,1,1-4,4A4,4,0,0,1,45,43Z"/><circle cx="45" cy="47" r="2"/><path d="M24.1,44.89a1.019,1.019,0,0,1,.06-.9l.65-1.08-1.72-1.72-1.08.64a.989.989,0,0,1-.9.07,1.007,1.007,0,0,1-.59-.68L20.22,40H17.78l-.3,1.22a1.007,1.007,0,0,1-.59.68.987.987,0,0,1-.9-.07l-1.08-.64-1.72,1.72.65,1.08a1.019,1.019,0,0,1,.06.9,1.007,1.007,0,0,1-.68.59l-1.22.3v2.44l1.22.3a1.007,1.007,0,0,1,.68.59,1.019,1.019,0,0,1-.06.9l-.65,1.08,1.72,1.72,1.08-.65a1.019,1.019,0,0,1,.9-.06,1.007,1.007,0,0,1,.59.68l.3,1.22h2.44l.3-1.22a1.007,1.007,0,0,1,.59-.68,1.019,1.019,0,0,1,.9.06l1.08.65,1.72-1.72-.65-1.08a1.019,1.019,0,0,1-.06-.9,1.007,1.007,0,0,1,.68-.59l1.22-.3V45.78l-1.22-.3A1.007,1.007,0,0,1,24.1,44.89ZM19,51a4,4,0,1,1,4-4A4,4,0,0,1,19,51Z"/><circle cx="19" cy="47" r="2"/></g></svg>
