<svg id="Layer_2" height="512" viewBox="0 0 16 16" width="512" xmlns="http://www.w3.org/2000/svg" data-name="Layer 2"><path d="m14 .5h-12a1.5017 1.5017 0 0 0 -1.5 1.5v12a1.5017 1.5017 0 0 0 1.5 1.5h12a1.5017 1.5017 0 0 0 1.5-1.5v-12a1.5017 1.5017 0 0 0 -1.5-1.5zm.5 13.5a.501.501 0 0 1 -.5.5h-12a.501.501 0 0 1 -.5-.5v-12a.5006.5006 0 0 1 .5-.5h12a.5006.5006 0 0 1 .5.5z"/><path d="m5.3535 7.6465-2-2a.5.5 0 0 0 -.707.707l1.6465 1.6465-1.6465 1.6465a.5.5 0 1 0 .707.707l2-2a.5.5 0 0 0 0-.707z"/><path d="m8 10.5h-3a.5.5 0 0 0 0 1h3a.5.5 0 0 0 0-1z"/><path d="m13 10.5h-3a.5.5 0 0 0 0 1h3a.5.5 0 0 0 0-1z"/></svg>