<svg id="Capa_1" enable-background="new 0 0 512 512" height="512" viewBox="0 0 512 512" width="512" xmlns="http://www.w3.org/2000/svg"><g><path d="m211 405.998v34.189l-79.746 26.587c-7.852 2.607-12.1 11.104-9.478 18.97 2.604 7.811 11.058 12.114 18.97 9.478l87.671-29.224h55.151l87.686 29.224c7.91 2.637 16.348-1.626 18.97-9.478 2.622-7.866-1.626-16.362-9.478-18.97l-79.761-26.587.015-34.189z"/><path d="m497 15.998h-482c-8.291 0-15 6.709-15 15v330c0 8.291 6.709 15 15 15h482c8.291 0 15-6.709 15-15v-330c0-8.291-6.709-15-15-15zm-406 90c0-8.291 6.709-15 15-15h120c8.291 0 15 6.709 15 15v120c0 8.291-6.709 15-15 15h-120c-8.291 0-15-6.709-15-15zm315 195h-300c-8.291 0-15-6.709-15-15s6.709-15 15-15h300c8.291 0 15 6.709 15 15s-6.709 15-15 15zm0-60h-120c-8.291 0-15-6.709-15-15s6.709-15 15-15h120c8.291 0 15 6.709 15 15s-6.709 15-15 15zm0-60h-120c-8.291 0-15-6.709-15-15s6.709-15 15-15h120c8.291 0 15 6.709 15 15s-6.709 15-15 15zm0-60h-120c-8.291 0-15-6.709-15-15s6.709-15 15-15h120c8.291 0 15 6.709 15 15s-6.709 15-15 15z"/><path d="m121 120.998h90v90h-90z"/></g></svg>