<svg height="512" viewBox="0 0 56 57" width="512" xmlns="http://www.w3.org/2000/svg"><g id="Page-1" fill="none" fill-rule="evenodd"><g id="039---Tool-Box" fill="rgb(0,0,0)" fill-rule="nonzero"><path id="Shape" d="m5 26h36v-6h-36zm15-4h6c.5522847 0 1 .4477153 1 1s-.4477153 1-1 1h-6c-.5522847 0-1-.4477153-1-1s.4477153-1 1-1z"/><circle id="Oval" cx="6" cy="55" r="2"/><path id="Shape" d="m5 18h36v-6h-36zm15-4h6c.5522847 0 1 .4477153 1 1s-.4477153 1-1 1h-6c-.5522847 0-1-.4477153-1-1s.4477153-1 1-1z"/><path id="Shape" d="m5 36h33.334l2.666-2.667v-5.333h-36zm15-4h6c.5522847 0 1 .4477153 1 1s-.4477153 1-1 1h-6c-.5522847 0-1-.4477153-1-1s.4477153-1 1-1z"/><path id="Shape" d="m2 52h20.557c.168484-.3027625.3759166-.582141.617-.831l1.168-1.169h-19.342c-1.1045695 0-2-.8954305-2-2v-44c0-1.1045695.8954305-2 2-2h36c1.1045695 0 2 .8954305 2 2v27.332l.754-.754c.2114946-.2137931.313859-.5124174.278-.811-.2379655-2.08977.4860146-4.1745237 1.968-5.667v-22.1c0-1.1045695-.8954305-2-2-2h-42c-1.1045695 0-2 .8954305-2 2v48c0 1.1045695.8954305 2 2 2z"/><path id="Shape" d="m5 48h21.341l9.995-10h-31.336zm15-8h6c.5522847 0 1 .4477153 1 1s-.4477153 1-1 1h-6c-.5522847 0-1-.4477153-1-1s.4477153-1 1-1z"/><circle id="Oval" cx="40" cy="55" r="2"/><path id="Shape" d="m24.589 55.415c.7926536.7540324 2.0373464.7540324 2.83 0l20.59-20.582c.6438247-.6418089 1.544742-.9557315 2.448-.853 1.5058203.1743321 3.0080673-.3542021 4.073-1.433 1.1246378-1.1245795 1.6486441-2.7162671 1.412-4.289l-1.405 1.453c-.6223686.6225107-1.4862546.9410528-2.3637728.8715979-.8775183-.069455-1.680537-.5199314-2.1972272-1.2325979-.8514921-1.2455071-.6826282-2.9231703.4-3.974l1.324-1.321c-1.5283794-.2180383-3.0717713.2821954-4.1816637 1.3553325s-1.6617995 2.5988143-1.4953363 4.1336675c.1042296.9034244-.209914 1.804976-.853 2.448-4.808 4.807-.481.481-5.708 5.711 0 0-9.324 9.323-14.872 14.88-.3761668.3752171-.5875751.884691-.5875751 1.416s.2114083 1.0407829.5875751 1.416z"/><path id="Shape" d="m41 44.667-3.335 3.333h3.335z"/><path id="Shape" d="m41 4h-36v6h36zm-15 4h-6c-.5522847 0-1-.44771525-1-1s.4477153-1 1-1h6c.5522847 0 1 .44771525 1 1s-.4477153 1-1 1z"/><path id="Shape" d="m46 50v-10.331l-3 3v5.331c0 1.1045695-.8954305 2-2 2h-5.335l-2 2h10.335c1.1045695 0 2-.8954305 2-2z"/></g></g></svg>