<svg height="512" viewBox="0 0 88 88" width="512" xmlns="http://www.w3.org/2000/svg"><g id="Box"><path d="m26.133 32.475 4.198 2.269 35.948-19.431-7.558-4.085-35.949 19.431z"/><path d="m25.5 44.6721a1.0012 1.0012 0 0 1 .8174.4238l3.0126 4.2715v-12.89l-5.85-3.1624-1.81-.9778v13.5708l3.5108-1.1836a1.0041 1.0041 0 0 1 .3192-.0523z"/><path d="m68.382 16.45-35.949 19.431 11.567 6.253 35.948-19.432z"/><path d="m20.669 29.522 35.949-19.431-12.618-6.821-35.948 19.432z"/><path d="m43 43.8665-11.67-6.308v14.9615a1 1 0 0 1 -1.8174.5761l-4.4-6.2382-4.1235 1.39a1 1 0 0 1 -1.3191-.9479v-16.0443l-12.67-6.8485v40.8628l36 19.46zm-26.376 22.059a1 1 0 0 1 -1.3554.4043l-4.7442-2.5644a1 1 0 1 1 .9512-1.76l4.7444 2.5646a1.0006 1.0006 0 0 1 .404 1.3555zm8.33 1.0923a1.0008 1.0008 0 0 1 -1.3555.4043l-13.0741-7.0669a1 1 0 1 1 .9512-1.76l13.0744 7.0672a1.0007 1.0007 0 0 1 .4041 1.3554z"/><path d="m45 43.866v40.864l36-19.46v-40.863z"/></g></svg>